<?xml version="1.0" encoding="UTF-8"?>
<!DOCTYPE svg PUBLIC "-//W3C//DTD SVG 1.1//EN" "http://www.w3.org/Graphics/SVG/1.1/DTD/svg11.dtd">
<svg xmlns="http://www.w3.org/2000/svg" version="1.1" width="326px" height="275px" style="shape-rendering:geometricPrecision; text-rendering:geometricPrecision; image-rendering:optimizeQuality; fill-rule:evenodd; clip-rule:evenodd" xmlns:xlink="http://www.w3.org/1999/xlink">
<g><path style="opacity:1" fill="#fefefe" d="M -0.5,-0.5 C 108.167,-0.5 216.833,-0.5 325.5,-0.5C 325.5,91.1667 325.5,182.833 325.5,274.5C 216.833,274.5 108.167,274.5 -0.5,274.5C -0.5,182.833 -0.5,91.1667 -0.5,-0.5 Z"/></g>
<g><path style="opacity:1" fill="#060606" d="M 48.5,123.5 C 59.1667,123.5 69.8333,123.5 80.5,123.5C 80.5,125.833 80.5,128.167 80.5,130.5C 72.1667,130.5 63.8333,130.5 55.5,130.5C 55.5,136.833 55.5,143.167 55.5,149.5C 62.8333,149.5 70.1667,149.5 77.5,149.5C 77.7394,151.467 77.4061,153.301 76.5,155C 69.5079,155.5 62.5079,155.666 55.5,155.5C 55.5,162.833 55.5,170.167 55.5,177.5C 63.84,177.334 72.1733,177.5 80.5,178C 81.8333,180 81.8333,182 80.5,184C 70.1667,184.667 59.8333,184.667 49.5,184C 49,183.5 48.5,183 48,182.5C 47.18,162.76 47.3467,143.093 48.5,123.5 Z"/></g>
<g><path style="opacity:1" fill="#090909" d="M 110.5,138.5 C 119.234,137.281 125.4,140.614 129,148.5C 129.667,160.167 129.667,171.833 129,183.5C 126.959,184.423 124.792,184.756 122.5,184.5C 122.666,174.161 122.5,163.828 122,153.5C 119.73,145.783 114.897,143.617 107.5,147C 105.667,148.833 103.833,150.667 102,152.5C 101.667,162.833 101.333,173.167 101,183.5C 98.6194,184.435 96.1194,184.768 93.5,184.5C 93.5,169.5 93.5,154.5 93.5,139.5C 98.8127,138.115 101.313,140.115 101,145.5C 104.068,142.917 107.235,140.584 110.5,138.5 Z"/></g>
<g><path style="opacity:1" fill="#070707" d="M 153.5,138.5 C 159.834,138.067 165.834,139.234 171.5,142C 173.041,143.579 174.208,145.413 175,147.5C 175.5,159.829 175.667,172.162 175.5,184.5C 173.5,184.5 171.5,184.5 169.5,184.5C 169.785,182.712 169.452,181.045 168.5,179.5C 159.914,187.31 151.414,187.31 143,179.5C 138.891,168.611 142.391,161.444 153.5,158C 158.489,157.501 163.489,157.334 168.5,157.5C 168.831,147.001 163.831,142.834 153.5,145C 150.5,146.5 147.5,148 144.5,149.5C 143.359,147.579 143.192,145.579 144,143.5C 147.127,141.487 150.293,139.82 153.5,138.5 Z"/></g>
<g><path style="opacity:1" fill="#050505" d="M 208.5,138.5 C 219.233,138.073 225.733,143.073 228,153.5C 229.663,163.181 227.996,172.181 223,180.5C 214.285,187.478 205.952,187.145 198,179.5C 197.667,186.5 197.333,193.5 197,200.5C 194.959,201.423 192.792,201.756 190.5,201.5C 190.5,180.833 190.5,160.167 190.5,139.5C 192.5,139.5 194.5,139.5 196.5,139.5C 196.337,141.857 196.503,144.19 197,146.5C 200.15,142.689 203.983,140.023 208.5,138.5 Z"/></g>
<g><path style="opacity:1" fill="#f9f9f9" d="M 205.5,145.5 C 213.28,143.783 218.113,146.783 220,154.5C 221.231,161.85 220.231,168.85 217,175.5C 213.662,178.318 209.829,179.151 205.5,178C 202.705,176.207 200.205,174.04 198,171.5C 197.333,165.167 197.333,158.833 198,152.5C 200.396,149.933 202.896,147.6 205.5,145.5 Z"/></g>
<g><path style="opacity:1" fill="#f1f1f1" d="M 155.5,163.5 C 159.833,163.5 164.167,163.5 168.5,163.5C 170.286,172.879 166.453,178.213 157,179.5C 149.502,178.503 147.169,174.503 150,167.5C 151.5,165.531 153.333,164.198 155.5,163.5 Z"/></g>
</svg>
