<?xml version="1.0" encoding="UTF-8"?>
<!DOCTYPE svg PUBLIC "-//W3C//DTD SVG 1.1//EN" "http://www.w3.org/Graphics/SVG/1.1/DTD/svg11.dtd">
<svg xmlns="http://www.w3.org/2000/svg" version="1.1" width="192px" height="81px" style="shape-rendering:geometricPrecision; text-rendering:geometricPrecision; image-rendering:optimizeQuality; fill-rule:evenodd; clip-rule:evenodd" xmlns:xlink="http://www.w3.org/1999/xlink">
<g><path style="opacity:1" fill="#fefefe" d="M -0.5,-0.5 C 63.5,-0.5 127.5,-0.5 191.5,-0.5C 191.5,26.5 191.5,53.5 191.5,80.5C 127.5,80.5 63.5,80.5 -0.5,80.5C -0.5,53.5 -0.5,26.5 -0.5,-0.5 Z"/></g>
<g><path style="opacity:1" fill="#878787" d="M 10.5,14.5 C 11.2485,15.531 11.9152,16.6976 12.5,18C 12.1667,18.1667 11.8333,18.3333 11.5,18.5C 10.5713,17.3112 10.238,15.9778 10.5,14.5 Z"/></g>
<g><path style="opacity:1" fill="#989898" d="M 13.5,15.5 C 16.0777,16.2541 18.7444,16.2541 21.5,15.5C 21.5,16.5 21.5,17.5 21.5,18.5C 18.0825,18.977 15.4159,17.977 13.5,15.5 Z"/></g>
</svg>
